# xmcd
#
# Track frame offsets: 
#        150
#        14570
#        41202
#        57582
#        71572
#        86945
#        105196
#        117780
#        130668
#        145494
#        161242
#        176376
#        188834
#        202228
#        216447
#        234672
#
# Disc length: 3422 seconds
#
# Revision: 0
# Processed by: cddbd v1.5.1PL0 Copyright (c) Steve Scherf et al.
# Submitted via: ExactAudioCopy v0.90b4
#
DISCID=f60d5c10
DTITLE=Various Artist - Soul Fire: The Majestic Collection
DYEAR=2005
DGENRE=Funk
TTITLE0=Lee Fields - Problems
TTITLE1=The Whitefield Brothers - Prowlin'
TTITLE2=Massak - B.L.A. PT.I
TTITLE3=JD and The Evil's Dynamite Band - Everglades
TTITLE4=Calypso King and The Soul Investigators - Investigator's Groove
TTITLE5=The Whitefield Brothers - Thunderbird
TTITLE6=JD and The Evil's Dynamite Band - Sunday Kind Of Love
TTITLE7=Bronx River Pkwy. - Quienes Oue Resolverlo
TTITLE8=Calypso King and The Soul Investigators - Gator Funk
TTITLE9=Sugarman Three - Solid Funk
TTITLE10=Lee Fields - Honey Dove
TTITLE11=WQLJ - Nothin' Doin' But Waitin' On Leon
TTITLE12=The Whitefield Brothers - Rampage
TTITLE13=The Fabulous Three - Answer Me Softly
TTITLE14=The Third Eye - Children's Song
TTITLE15=El Michels Affair - Easy Access
EXTD=
EXTT0=
EXTT1=
EXTT2=
EXTT3=
EXTT4=
EXTT5=
EXTT6=
EXTT7=
EXTT8=
EXTT9=
EXTT10=
EXTT11=
EXTT12=
EXTT13=
EXTT14=
EXTT15=
PLAYORDER=
